#!OML:ASF H:\LiuWeirdWalks\Patient Classification 1\Patient 1\Session 1\male.ASF
:FULLY-SPECIFIED
:DEGREES
1939
root 0.385799 18.3209 35.1863 7.57107 2.09251 4.38585
lowerback 1.58903 -3.68421 -5.05741
upperback -0.964171 -4.99227 3.29973
thorax -1.15869 -2.44362 6.35703
lowerneck -18.4759 1.06492 4.8314
upperneck 22.8805 1.65236 -6.24793
head 10.481 0.414648 -2.8142
rclavicle 3.12092e-014 2.8625e-014
rhumerus -40.729 -4.43785 -75.4435
rradius 35.8807
rwrist -9.34302
rhand -16.5909 -2.95822
rfingers 7.12502
rthumb 9.63004 -32.7181
lclavicle 3.12092e-014 2.8625e-014
lhumerus -34.255 -9.0051 92.6577
lradius 40.8805
lwrist 16.6721
lhand -12.7634 -2.19157
lfingers 7.12502
lthumb 13.3213 27.3626
rfemur -19.326 -0.452304 19.7429
rtibia 28.3312
rfoot -9.13808 -18.5329
rtoes 1.17287
lfemur 3.36713 -2.7388 -20.5495
ltibia 34.2993
lfoot 27.6383 -3.23632
ltoes -14.7008
1940
root 0.375621 18.3209 35.224 7.50507 2.22608 4.11075
lowerback 1.62212 -3.58747 -4.62059
upperback -0.932479 -4.85287 3.30512
thorax -1.19971 -2.37656 6.11673
lowerneck -18.467 0.975271 4.74273
upperneck 22.9225 1.52957 -6.14908
head 10.4849 0.362825 -2.78175
rclavicle -4.47266e-014 2.22639e-014
rhumerus -40.7743 -4.65972 -75.4031
rradius 35.9029
rwrist -9.34448
rhand -16.5882 -2.86903
rfingers 7.12502
rthumb 9.6327 -32.6288
lclavicle -4.47266e-014 2.22639e-014
lhumerus -34.2704 -9.3191 92.724
lradius 40.9024
lwrist 16.7084
lhand -12.8291 -2.24639
lfingers 7.12502
lthumb 13.258 27.312
rfemur -19.0616 -0.47944 20.1013
rtibia 28.231
rfoot -9.19562 -18.6461
rtoes 1.1623
lfemur 2.93478 -2.67709 -20.1208
ltibia 35.2499
lfoot 27.8334 -3.41769
ltoes -13.5649
1941
root 0.367075 18.322 35.2597 7.72818 2.25069 4.81898
lowerback 1.43239 -3.57996 -5.32523
upperback -0.974607 -4.85449 3.12171
thorax -1.09556 -2.3742 6.31021
lowerneck -18.5193 0.981868 4.74442
upperneck 22.965 1.53821 -6.14851
head 10.511 0.366338 -2.7819
rclavicle -1.63003e-014 5.56597e-015
rhumerus -40.6978 -4.64665 -75.4212
rradius 35.9079
rwrist -9.32559
rhand -16.5738 -2.76339
rfingers 7.12502
rthumb 9.64654 -32.5225
lclavicle -1.63003e-014 5.56597e-015
lhumerus -34.2387 -9.36198 92.7241
lradius 40.9188
lwrist 16.7165
lhand -12.8872 -2.31458
lfingers 7.12502
lthumb 13.2019 27.2474
rfemur -19.3266 -0.628827 19.3532
rtibia 28.5727
rfoot -9.42901 -18.6775
rtoes 1.13527
lfemur 2.27849 -2.67816 -20.8266
ltibia 36.0025
lfoot 28.1965 -3.46998
ltoes -12.6132
1942
root 0.360143 18.322 35.293 8.1549 2.18069 6.2986
lowerback 1.10193 -3.62157 -6.87446
upperback -1.07959 -4.92996 2.7619
thorax -0.913292 -2.4039 6.78761
lowerneck -18.6142 1.02928 4.77763
upperneck 23.029 1.6009 -6.17465
head 10.5571 0.393454 -2.79011
rclavicle -8.15017e-015 6.36111e-015
rhumerus -40.5785 -4.50768 -75.4844
rradius 35.931
rwrist -9.35239
rhand -16.5767 -2.75105
rfingers 7.12502
rthumb 9.64378 -32.5103
lclavicle -8.15017e-015 6.36111e-015
lhumerus -34.1957 -9.27995 92.6886
lradius 40.9308
lwrist 16.6854
lhand -12.9096 -2.38435
lfingers 7.12502
lthumb 13.1803 27.179
rfemur -19.9645 -0.908492 17.7362
rtibia 29.2184
rfoot -9.77151 -18.6133
rtoes 1.07956
lfemur 1.46083 -2.72873 -22.423
ltibia 36.6262
lfoot 28.6668 -3.41105
ltoes -11.7689
1943
root 0.354288 18.3197 35.3244 8.62063 2.1064 7.87785
lowerback 0.742697 -3.68423 -8.52258
upperback -1.19602 -5.02149 2.37775
thorax -0.716763 -2.44206 7.29129
lowerneck -18.7143 1.08299 4.82192
upperneck 23.0887 1.67059 -6.20798
head 10.6034 0.423792 -2.80169
rclavicle 4.77083e-015 3.18055e-015
rhumerus -40.4578 -4.35462 -75.5537
rradius 35.9713
rwrist -9.3992
rhand -16.5877 -2.80648
rfingers 7.12502
rthumb 9.63317 -32.5662
lclavicle 4.77083e-015 3.18055e-015
lhumerus -34.1461 -9.18651 92.6494
lradius 40.9353
lwrist 16.664
lhand -12.9121 -2.43892
lfingers 7.12502
lthumb 13.1779 27.1246
rfemur -20.6253 -1.27334 16.0102
rtibia 29.8109
rfoot -10.0537 -18.4979
rtoes 0.987712
lfemur 0.573452 -2.79334 -24.1288
ltibia 37.2901
lfoot 29.0982 -3.32702
ltoes -11.0249
1944
root 0.346643 18.3168 35.3566 8.9053 2.09834 8.8281
lowerback 0.545819 -3.74134 -9.55103
upperback -1.25617 -5.09789 2.16462
thorax -0.589293 -2.47683 7.63302
lowerneck -18.8378 1.14884 4.87948
upperneck 23.1647 1.7545 -6.24697
head 10.6614 0.460706 -2.816
rclavicle -3.51849e-014 2.22639e-014
rhumerus -40.3272 -4.19153 -75.6253
rradius 36.0209
rwrist -9.43734
rhand -16.5704 -2.90606
rfingers 7.12502
rthumb 9.64985 -32.665
lclavicle -3.51849e-014 2.22639e-014
lhumerus -34.0894 -9.06412 92.5993
lradius 40.9379
lwrist 16.6552
lhand -12.8957 -2.47947
lfingers 7.12502
lthumb 13.1937 27.083
rfemur -20.9864 -1.52104 14.9968
rtibia 30.1925
rfoot -10.2352 -18.4814
rtoes 0.881327
lfemur -0.183682 -2.79077 -25.1075
ltibia 38.0736
lfoot 29.3959 -3.26331
ltoes -10.2187
1945
root 0.33587 18.3171 35.3924 8.70597 2.29514 8.1916
lowerback 0.697469 -3.71691 -8.92559
upperback -1.16579 -5.06653 2.34331
thorax -0.621226 -2.46763 7.47697
lowerneck -18.8519 1.17297 4.90725
upperneck 23.1944 1.78337 -6.25622
head 10.6773 0.475119 -2.82064
rclavicle 1.98785e-016 -3.18055e-015
rhumerus -40.2431 -4.11198 -75.6631
rradius 36.0686
rwrist -9.48443
rhand -16.5431 -3.0236
rfingers 7.12502
rthumb 9.67615 -32.7814
lclavicle 1.98785e-016 -3.18055e-015
lhumerus -34.0534 -9.0252 92.5782
lradius 40.9432
lwrist 16.6502
lhand -12.8591 -2.50169
lfingers 7.12502
lthumb 13.2291 27.0585
rfemur -20.6243 -1.46449 15.7769
rtibia 30.2084
rfoot -10.3078 -18.717
rtoes 0.765309
lfemur -0.524696 -2.64044 -24.2722
ltibia 39.0528
lfoot 29.4344 -3.31988
ltoes -9.39452
1946
root 0.324391 18.3172 35.4275 8.50547 2.48001 7.5758
lowerback 0.843682 -3.69481 -8.34285
upperback -1.07718 -5.0368 2.5224
thorax -0.648194 -2.45888 7.34449
lowerneck -18.855 1.20239 4.94908
upperneck 23.212 1.81965 -6.28178
head 10.6874 0.492356 -2.83218
rclavicle -3.77691e-014 -1.11319e-014
rhumerus -40.149 -4.03267 -75.6933
rradius 36.0929
rwrist -9.50521
rhand -16.5007 -3.11022
rfingers 7.12502
rthumb 9.71714 -32.8661
lclavicle -3.77691e-014 -1.11319e-014
lhumerus -34.0225 -8.9608 92.5551
lradius 40.9547
lwrist 16.6556
lhand -12.8216 -2.50467
lfingers 7.12502
lthumb 13.2652 27.0532
rfemur -20.1631 -1.38056 16.5334
rtibia 29.9912
rfoot -10.2359 -18.9555
rtoes 0.657891
lfemur -0.923129 -2.47034 -23.4567
ltibia 40.1331
lfoot 29.3547 -3.317
ltoes -8.54077
1947
root 0.313261 18.3176 35.4623 8.28019 2.66897 6.90418
lowerback 1.00339 -3.66916 -7.69648
upperback -0.981309 -5.00039 2.71103
thorax -0.680817 -2.44692 7.18629
lowerneck -18.8606 1.229 4.99747
upperneck 23.2371 1.85071 -6.30949
head 10.7005 0.507491 -2.84657
rclavicle 5.12864e-014 -6.36111e-015
rhumerus -40.0559 -3.96052 -75.7252
rradius 36.1102
rwrist -9.53444
rhand -16.4779 -3.1497
rfingers 7.12502
rthumb 9.73909 -32.9045
lclavicle 5.12864e-014 -6.36111e-015
lhumerus -33.9924 -8.88541 92.5237
lradius 40.9701
lwrist 16.6255
lhand -12.7786 -2.50213
lfingers 7.12502
lthumb 13.3066 27.053
rfemur -19.6458 -1.28724 17.3507
rtibia 29.6972
rfoot -10.1235 -19.1962
rtoes 0.557538
lfemur -1.32003 -2.28744 -22.5763
ltibia 41.2393
lfoot 29.1733 -3.2153
ltoes -7.81046
